<svg width="13" height="12" viewBox="0 0 13 12" fill="none" xmlns="http://www.w3.org/2000/svg">
<path d="M7.51025 2.625V0.79875C7.69315 0.849562 7.86005 0.946229 7.99513 1.07959L9.43066 2.51512C9.56409 2.65017 9.66078 2.81708 9.71155 3H7.88525C7.78583 2.9999 7.6905 2.96036 7.6202 2.89006C7.54989 2.81975 7.51035 2.72443 7.51025 2.625ZM9.76025 3.75V10.125C9.75993 10.4233 9.6413 10.7092 9.43039 10.9201C9.21948 11.131 8.93352 11.2497 8.63525 11.25H3.38525C3.08699 11.2497 2.80103 11.131 2.59012 10.9201C2.37921 10.7092 2.26058 10.4233 2.26025 10.125V1.875C2.26058 1.57673 2.37921 1.29077 2.59012 1.07986C2.80103 0.868957 3.08699 0.750326 3.38525 0.75H6.76025V2.625C6.76058 2.92327 6.87921 3.20923 7.09012 3.42014C7.30103 3.63104 7.58699 3.74967 7.88525 3.75H9.76025ZM4.13525 7.875C4.13525 7.80083 4.11326 7.72833 4.07205 7.66666C4.03085 7.60499 3.97228 7.55693 3.90376 7.52855C3.83524 7.50016 3.75984 7.49274 3.6871 7.50721C3.61435 7.52168 3.54753 7.55739 3.49509 7.60983C3.44264 7.66228 3.40693 7.7291 3.39246 7.80184C3.37799 7.87458 3.38542 7.94998 3.4138 8.01851C3.44218 8.08703 3.49025 8.1456 3.55191 8.1868C3.61358 8.22801 3.68609 8.25 3.76025 8.25C3.85971 8.25 3.95509 8.21049 4.02542 8.14017C4.09574 8.06984 4.13525 7.97446 4.13525 7.875ZM4.13525 6.375C4.13525 6.30083 4.11326 6.22833 4.07205 6.16666C4.03085 6.10499 3.97228 6.05693 3.90376 6.02855C3.83524 6.00016 3.75984 5.99274 3.6871 6.00721C3.61435 6.02168 3.54753 6.05739 3.49509 6.10983C3.44264 6.16228 3.40693 6.2291 3.39246 6.30184C3.37799 6.37458 3.38542 6.44998 3.4138 6.51851C3.44218 6.58703 3.49025 6.6456 3.55191 6.6868C3.61358 6.72801 3.68609 6.75 3.76025 6.75C3.85971 6.75 3.95509 6.71049 4.02542 6.64017C4.09574 6.56984 4.13525 6.47446 4.13525 6.375ZM4.13525 4.875C4.13525 4.80083 4.11326 4.72833 4.07205 4.66666C4.03085 4.60499 3.97228 4.55693 3.90376 4.52855C3.83524 4.50016 3.75984 4.49274 3.6871 4.50721C3.61435 4.52167 3.54753 4.55739 3.49509 4.60984C3.44264 4.66228 3.40693 4.7291 3.39246 4.80184C3.37799 4.87458 3.38542 4.94998 3.4138 5.01851C3.44218 5.08703 3.49025 5.1456 3.55191 5.1868C3.61358 5.22801 3.68609 5.25 3.76025 5.25C3.85971 5.25 3.95509 5.21049 4.02542 5.14016C4.09574 5.06984 4.13525 4.97446 4.13525 4.875ZM8.63525 7.875C8.63527 7.82575 8.62558 7.77698 8.60673 7.73148C8.58789 7.68598 8.56027 7.64463 8.52545 7.60981C8.49062 7.57498 8.44928 7.54736 8.40378 7.52852C8.35827 7.50968 8.3095 7.49999 8.26025 7.5H4.88525C4.7858 7.5 4.69042 7.53951 4.62009 7.60983C4.54976 7.68016 4.51025 7.77554 4.51025 7.875C4.51025 7.97446 4.54976 8.06984 4.62009 8.14017C4.69042 8.21049 4.7858 8.25 4.88525 8.25H8.26025C8.3095 8.25001 8.35827 8.24032 8.40378 8.22148C8.44928 8.20264 8.49062 8.17502 8.52545 8.14019C8.56027 8.10537 8.58789 8.06402 8.60673 8.01852C8.62558 7.97302 8.63527 7.92425 8.63525 7.875ZM8.63525 6.375C8.63527 6.32575 8.62558 6.27698 8.60673 6.23148C8.58789 6.18598 8.56027 6.14463 8.52545 6.10981C8.49062 6.07498 8.44928 6.04736 8.40378 6.02852C8.35827 6.00968 8.3095 5.99999 8.26025 6H4.88525C4.7858 6 4.69042 6.03951 4.62009 6.10983C4.54976 6.18016 4.51025 6.27554 4.51025 6.375C4.51025 6.47446 4.54976 6.56984 4.62009 6.64017C4.69042 6.71049 4.7858 6.75 4.88525 6.75H8.26025C8.3095 6.75001 8.35827 6.74032 8.40378 6.72148C8.44928 6.70264 8.49062 6.67502 8.52545 6.64019C8.56027 6.60537 8.58789 6.56402 8.60673 6.51852C8.62558 6.47302 8.63527 6.42425 8.63525 6.375ZM8.63525 4.875C8.63527 4.82575 8.62558 4.77698 8.60673 4.73148C8.58789 4.68598 8.56027 4.64463 8.52545 4.60981C8.49062 4.57498 8.44928 4.54736 8.40378 4.52852C8.35827 4.50968 8.3095 4.49999 8.26025 4.5H4.88525C4.7858 4.5 4.69042 4.53951 4.62009 4.60984C4.54976 4.68016 4.51025 4.77554 4.51025 4.875C4.51025 4.97446 4.54976 5.06984 4.62009 5.14016C4.69042 5.21049 4.7858 5.25 4.88525 5.25H8.26025C8.3095 5.25001 8.35827 5.24032 8.40378 5.22148C8.44928 5.20264 8.49062 5.17502 8.52545 5.14019C8.56027 5.10537 8.58789 5.06402 8.60673 5.01852C8.62558 4.97302 8.63527 4.92425 8.63525 4.875Z" fill="white"/>
</svg>
